<svg xmlns="http://www.w3.org/2000/svg" width="24" height="24" viewBox="0 0 24 24" fill="none">
<path d="M23 5.09739C22.1902 5.45984 21.2904 5.68637 20.3906 5.82229C21.3354 5.23331 22.0552 4.37248 22.3701 3.33043C21.4703 3.87411 20.5256 4.23656 19.4908 4.41779C17.7812 2.60553 14.9468 2.51491 13.1023 4.23656C11.9325 5.32392 11.4376 7.00027 11.7975 8.586C8.15337 8.40477 4.77914 6.68312 2.48466 3.8288C1.26994 5.91291 1.8998 8.54069 3.87935 9.89989C3.15951 9.85458 2.48466 9.67335 1.85481 9.3109C1.80982 11.4856 3.33947 13.3885 5.45399 13.7963C4.77914 13.9775 4.10429 14.0228 3.42945 13.8869C4.01432 15.7444 5.72393 17.013 7.65849 17.0583C5.76892 18.5534 3.38446 19.233 1 18.9612C3.06953 20.2751 5.45399 21 7.92843 21C16.2965 21 21.0205 13.8869 20.7505 7.49864C21.6503 6.81904 22.4151 6.00352 23 5.09739Z" fill="white"/>
</svg>